<?xml version="1.0" encoding="utf-8"?>
<!-- Generator: Adobe Illustrator 24.1.2, SVG Export Plug-In . SVG Version: 6.00 Build 0)  -->
<svg version="1.1" id="Layer_1" xmlns="http://www.w3.org/2000/svg" xmlns:xlink="http://www.w3.org/1999/xlink" x="0px" y="0px"
	 viewBox="0 0 200 200" style="enable-background:new 0 0 200 200;" xml:space="preserve">
<style type="text/css">
	.st0{fill:#FEFEFE;}
	.st1{fill:#FCFCFC;}
</style>
<path class="st0" d="M31.01,113.82c1.43-0.1,2.77-0.18,4.12-0.27c8.69-0.58,16.64,1.75,23.91,6.35c6.28,3.97,12.42,8.16,18.61,12.27
	c4.5,2.99,9.02,5.93,14.05,7.98c9.88,4.02,19.52,3.28,28.95-1.48c5.11-2.58,9.8-5.84,14.51-9.05c5.81-3.96,11.55-8.01,17.75-11.37
	c6.99-3.78,14.42-5.29,22.32-4.62c0.91,0.08,1.83,0.12,2.88,0.19c-0.81,2.33-1.57,4.53-2.34,6.72c-3.03,8.64-6.25,17.2-10.42,25.37
	c-4.9,9.6-11.23,18.2-18.35,26.24c-4.97,5.62-10.12,11.06-15.97,15.81c-7.2,5.86-15.48,8.63-24.68,8.87
	c-6.67,0.17-13.18-0.62-19.35-3.34c-5.04-2.22-9.33-5.53-13.29-9.29c-10.18-9.66-19.34-20.17-26.62-32.23
	c-4.8-7.95-8.35-16.48-11.54-25.17c-1.44-3.93-2.81-7.89-4.21-11.84C31.24,114.62,31.15,114.27,31.01,113.82z M123.17,149.34
	c2.05,0.42,3.95,0.94,5.89,1.19c4.04,0.51,8.07,0.07,12.08-0.46c3.64-0.48,7.25-1.15,10.67-2.55c4.02-1.64,6.5-4.51,6.94-8.91
	c0.19-1.9,0.19-3.81,0.23-5.72c0.02-0.9-0.07-1.81-0.11-2.71C145.91,134.52,133.7,140.04,123.17,149.34z M50.16,130.15
	c0,2.41-0.07,4.75,0.01,7.09c0.18,5.23,2.74,8.82,7.7,10.51c7.34,2.49,14.9,3.38,22.61,2.73c1.79-0.15,3.54-0.76,5.37-1.17
	C75.4,140.03,63.17,134.54,50.16,130.15z"/>
<path class="st0" d="M0,200C0,133.34,0,66.68,0,0c66.66,0,133.32,0,200,0c0,66.66,0,133.33,0,200C133.34,200,66.67,200,0,200z
	 M96.35,132.82c0.48-1.08,1-2.12,1.42-3.2c2.29-5.86,3.18-12.01,3.88-18.21c1.1-9.79,1.6-19.62,1.85-29.46
	c0.34-13.4,0.19-26.79-0.56-40.17c-0.36-6.41-0.8-12.81-2.02-19.12c-0.62-3.21-1.28-6.42-2.96-9.29c-1.42-2.43-3.22-3.25-5.98-2.77
	c-0.39,0.07-0.79,0.15-1.18,0.23c-15.52,3.4-28.19,11.49-38.51,23.42c-8.94,10.33-15,22.24-18.91,35.27
	c-2.34,7.8-3.86,15.75-4.02,23.92c-0.07,3.69,0.32,7.33,1.47,10.86c0.2,0.61,0.43,0.86,1.14,0.84c6.51-0.19,12.75,1.07,18.71,3.72
	c6.28,2.78,12.06,6.46,17.92,9.98c5.44,3.27,10.9,6.52,16.45,9.6C88.56,130.37,92.35,131.72,96.35,132.82z M112.31,132.9
	c1.23-0.39,2.17-0.68,3.11-0.99c6.73-2.21,12.81-5.73,18.83-9.37c6.36-3.84,12.69-7.73,19.16-11.38c6.84-3.86,14.2-6.09,22.14-6.05
	c2.23,0.01,2.22-0.02,2.81-2.19c1.41-5.19,1.28-10.45,0.69-15.72c-1.31-11.56-4.51-22.58-9.58-33.05
	c-6.27-12.93-14.82-24.01-26.63-32.39c-7.83-5.55-16.44-9.3-25.87-11.15c-2.36-0.46-4.42,0.01-5.72,2.17
	c-0.79,1.31-1.46,2.72-1.95,4.17c-1.49,4.44-2.21,9.06-2.56,13.7c-0.64,8.67-1.21,17.36-1.42,26.06
	c-0.44,18.02-0.17,36.04,1.77,53.99c0.56,5.21,1.14,10.43,2.79,15.44C110.6,128.39,111.46,130.59,112.31,132.9z M31.01,113.82
	c0.14,0.46,0.23,0.81,0.35,1.15c1.4,3.95,2.77,7.91,4.21,11.84c3.19,8.69,6.74,17.22,11.54,25.17
	c7.28,12.06,16.44,22.57,26.62,32.23c3.96,3.75,8.25,7.07,13.29,9.29c6.17,2.72,12.67,3.51,19.35,3.34
	c9.21-0.24,17.49-3.01,24.68-8.87c5.84-4.75,10.99-10.19,15.97-15.81c7.12-8.04,13.45-16.65,18.35-26.24
	c4.18-8.17,7.39-16.73,10.42-25.37c0.77-2.2,1.53-4.4,2.34-6.72c-1.05-0.07-1.96-0.11-2.88-0.19c-7.9-0.67-15.33,0.84-22.32,4.62
	c-6.2,3.36-11.94,7.41-17.75,11.37c-4.71,3.21-9.4,6.47-14.51,9.05c-9.44,4.76-19.08,5.5-28.95,1.48
	c-5.03-2.05-9.55-4.99-14.05-7.98c-6.19-4.12-12.33-8.3-18.61-12.27c-7.28-4.6-15.23-6.93-23.91-6.35
	C33.79,113.63,32.44,113.72,31.01,113.82z"/>
<path class="st0" d="M96.35,132.82c-4-1.11-7.79-2.45-11.29-4.39c-5.55-3.08-11.01-6.33-16.45-9.6c-5.87-3.52-11.64-7.2-17.92-9.98
	c-5.96-2.64-12.19-3.91-18.71-3.72c-0.7,0.02-0.94-0.23-1.14-0.84c-1.16-3.53-1.54-7.17-1.47-10.86c0.15-8.17,1.68-16.12,4.02-23.92
	c3.91-13.03,9.98-24.94,18.91-35.27c10.31-11.92,22.99-20.02,38.51-23.42c0.39-0.09,0.78-0.17,1.18-0.23
	c2.76-0.48,4.56,0.34,5.98,2.77c1.68,2.87,2.35,6.08,2.96,9.29c1.22,6.32,1.66,12.72,2.02,19.12c0.75,13.38,0.89,26.77,0.56,40.17
	c-0.25,9.84-0.75,19.67-1.85,29.46c-0.7,6.2-1.59,12.35-3.88,18.21C97.35,130.7,96.84,131.74,96.35,132.82z"/>
<path class="st0" d="M112.31,132.9c-0.84-2.31-1.71-4.5-2.45-6.75c-1.64-5.01-2.22-10.23-2.79-15.44
	c-1.94-17.95-2.21-35.97-1.77-53.99c0.21-8.69,0.78-17.38,1.42-26.06c0.34-4.63,1.07-9.26,2.56-13.7c0.49-1.45,1.16-2.86,1.95-4.17
	c1.3-2.16,3.36-2.63,5.72-2.17c9.43,1.85,18.05,5.6,25.87,11.15c11.81,8.37,20.36,19.46,26.63,32.39
	c5.08,10.46,8.28,21.49,9.58,33.05c0.59,5.26,0.73,10.53-0.69,15.72c-0.59,2.17-0.58,2.2-2.81,2.19c-7.95-0.05-15.3,2.19-22.14,6.05
	c-6.47,3.65-12.8,7.54-19.16,11.38c-6.02,3.64-12.1,7.17-18.83,9.37C114.48,132.22,113.54,132.51,112.31,132.9z"/>
<path class="st1" d="M123.17,149.34c10.52-9.3,22.74-14.82,35.7-19.17c0.04,0.91,0.13,1.81,0.11,2.71
	c-0.04,1.91-0.04,3.83-0.23,5.72c-0.44,4.4-2.92,7.27-6.94,8.91c-3.43,1.4-7.03,2.06-10.67,2.55c-4.01,0.53-8.04,0.97-12.08,0.46
	C127.12,150.29,125.22,149.77,123.17,149.34z"/>
<path class="st1" d="M50.16,130.15c13.01,4.38,25.24,9.87,35.7,19.15c-1.83,0.41-3.58,1.02-5.37,1.17
	c-7.71,0.65-15.28-0.24-22.61-2.73c-4.97-1.68-7.52-5.28-7.7-10.51C50.09,134.91,50.16,132.56,50.16,130.15z"/>
</svg>
